<?xml version="1.0" encoding="utf-8"?>
<!-- Generator: Adobe Illustrator 18.1.0, SVG Export Plug-In . SVG Version: 6.00 Build 0)  -->
<!DOCTYPE svg PUBLIC "-//W3C//DTD SVG 1.1//EN" "http://www.w3.org/Graphics/SVG/1.1/DTD/svg11.dtd">
<svg version="1.1" id="Book" xmlns="http://www.w3.org/2000/svg" xmlns:xlink="http://www.w3.org/1999/xlink" x="0px" y="0px"
	 viewBox="0 0 100 100" enable-background="new 0 0 100 100" xml:space="preserve">
<path d="M85,29.8v51.8c0,2.6-2.3,3.9-5,5.8c-2.2,1.6-5-0.4-5-2.9c0,0,0-49.5,0-50.6c0-1.1-0.4-2.1-1.6-2.7
	c-1.2-0.6-38.7-20.3-38.7-20.3c-0.6-0.2-3.2-1.9-6.8-0.1c-3.3,1.7-5.2,3.6-5.6,4.5l40.9,22.4c1.1,0.6,1.8,1.5,1.8,2.6v54
	c0,1.2-0.7,2.4-1.8,2.9c-0.5,0.3-1.1,0.4-1.7,0.4c-0.7,0-1.4-0.2-1.9-0.5c-1.1-0.7-38.9-23.8-41.4-25.3c-1.2-0.7-2.6-2.2-2.6-3.3
	L15,16.9c0-1-0.1-2.7,1.4-5.2c3.5-5.4,15.6-11.6,21.8-8.4l45,22.8C84.3,26.7,85,27.8,85,29.8z"/>
</svg>
