<?xml version="1.0" encoding="utf-8"?>
<!-- Generator: Adobe Illustrator 18.1.0, SVG Export Plug-In . SVG Version: 6.00 Build 0)  -->
<!DOCTYPE svg PUBLIC "-//W3C//DTD SVG 1.1//EN" "http://www.w3.org/Graphics/SVG/1.1/DTD/svg11.dtd">
<svg version="1.1" id="Briefcase" xmlns="http://www.w3.org/2000/svg" xmlns:xlink="http://www.w3.org/1999/xlink" x="0px" y="0px"
	 viewBox="0 0 100 100" enable-background="new 0 0 100 100" xml:space="preserve">
<path d="M45,50h10v10h45c0,0-0.7-22.3-1-29.3C98.8,24.1,96.4,20,89,20H73c-2.5-4.7-5.2-9.7-6-11.3C65.3,5.6,64.8,5,61.1,5H38.9
	c-3.7,0-4.2,0.6-5.9,3.7c-0.8,1.6-3.5,6.6-6,11.3H11c-7.4,0-9.7,4.1-10,10.7C0.7,37.4,0,60,0,60h45V50z M38.2,14.6
	c1.1-2.2,1.5-2.6,4.1-2.6h15.3c2.5,0,2.9,0.4,4.1,2.6c0.4,0.8,1.6,3,2.9,5.4H35.4C36.7,17.6,37.8,15.4,38.2,14.6z M55,75H45V65H2.5
	c0,0,0.6,9,1,16.6c0.2,3.2,1.1,8.4,9,8.4h75c7.9,0,8.8-5.2,9-8.4c0.4-7.8,1-16.6,1-16.6H55V75z"/>
</svg>
